<?xml version="1.0" encoding="UTF-8"?>
<!DOCTYPE svg PUBLIC "-//W3C//DTD SVG 1.1//EN" "http://www.w3.org/Graphics/SVG/1.1/DTD/svg11.dtd">
<!-- Creator: CorelDRAW 2019 (64-Bit) -->
<svg xmlns="http://www.w3.org/2000/svg" xml:space="preserve" width="45.953mm" height="28.1706mm" version="1.1" style="shape-rendering:geometricPrecision; text-rendering:geometricPrecision; image-rendering:optimizeQuality; fill-rule:evenodd; clip-rule:evenodd"
viewBox="0 0 126296.54 77423.66"
 xmlns:xlink="http://www.w3.org/1999/xlink"
 xmlns:xodm="http://www.corel.com/coreldraw/odm/2003">
 <defs>
  <style type="text/css">
   <![CDATA[
    .fil0 {fill:#E6E7E8}
   ]]>
  </style>
 </defs>
 <g id="Capa_x0020_1">
  <metadata id="CorelCorpID_0Corel-Layer"/>
  <g id="_2161559443760">
   <path class="fil0" d="M38599.42 11661.4l1758.14 2358.11c376.53,501.58 526.87,1138.11 414.18,1756.49 -111.58,618.11 -477.67,1160.09 -1007.28,1497.32l-19199.67 12218.5c-479.59,308.09 -1058.4,421.6 -1618.8,317.71 -8868.49,-1652.33 -12281.16,-3063.08 -12846.23,-3577.3 -91.52,-66.51 -187.71,-125.05 -288.86,-175.35l676.93 -3346.98 29470.38 -11783.43c945.44,-380.38 2027.76,-78.88 2641.2,734.92zm0 0z"/>
   <path class="fil0" d="M93373.36 49660.3c7708.4,2075.86 14424.62,3831.25 21483.03,5318.95 532.36,114.61 1077.37,225.37 1625.39,317.99 1400.03,199.26 2773.12,556.55 4092.35,1063.9 643.4,302.32 1233.48,705.79 1749.62,1194.17 -9503.09,1227.7 -19075.44,1830.42 -28657.69,1803.49 500.76,-3223.03 401.81,-6511.47 -292.7,-9698.78l0 0.27zm0 0z"/>
   <path class="fil0" d="M51558.06 44749.21c0,-21.99 -33.53,-31.61 -45.07,-51.94 1346.98,-2151.16 1385.46,-4872.34 98.94,-7061.15 -361.96,-719.25 -1080.39,-1191.15 -1885.39,-1237.32 -803.9,-46.17 -1572.35,339.98 -2014.29,1013.88 -443.04,674.18 -491.96,1531.95 -128.9,2252.3 267.42,529.61 815.45,1843.07 141.27,2599.15 -852,960.01 -6948.19,4971.55 -43511.61,-8159.13l676.1 -3397c4260,1692.73 8702.76,2880.03 13239.25,3536.62 1681.19,314.96 3420.09,-23.09 4860.79,-946.54l19204.62 -12228.94c1588.84,-1011.13 2683.52,-2639.55 3021.57,-4492.24 336.95,-1852.69 -112.68,-3763.09 -1243.09,-5268.93l-1769.14 -2357.29c-1838.12,-2441.12 -5081.21,-3350.01 -7920.02,-2220.42l-26880.86 10751.13 867.67 -5201.87c285.01,-1736.15 1599.29,-3122.72 3317.3,-3500.07l15806.24 -3513.81c200.36,-44.25 396.87,-101.97 590.35,-171.5l12958.91 -4861.62c1727.63,-651.92 3667.99,109.66 4490.31,1763.09l4265.49 8537.31 2096.47 8789.61c116.53,562.32 306.17,1107.32 566.17,1620.45l1615.78 3233.75c-432.32,1501.17 -1580.32,2689.29 -3065,3171.64 -765.7,275.39 -1323.07,941.87 -1458.84,1743.85 -135.77,802.25 170.4,1614.95 801.98,2127.25 631.58,512.3 1490.72,644.22 2247.63,345.75 1503.92,-546.93 2847.33,-1461.87 3908.48,-2659.61 436.99,751.96 1015.8,1413.49 1703.17,1946.96l388.07 290.78c-453.48,1306.86 -1401.95,2383.4 -2642.02,2997.66 -1066.1,642.3 -1410.75,2026.93 -769.55,3093.86 642.3,1066.1 2026.93,1410.75 3093.86,769.27 1693.01,-953.14 3088.09,-2358.11 4031.88,-4056.62l3033.12 2273.46c-600.8,1138.93 -1436.58,2138.52 -2451.56,2930.05 -609.59,527.69 -890.75,1339.56 -739.59,2130 152.26,791.53 714.58,1441.53 1475.33,1705.37 760.75,263.84 1605.33,102.24 2214.65,-424.63 1389.58,-1133.43 2548.03,-2523.84 3409.92,-4095.37l2940.5 1471.49c-174.25,1147.73 -545.83,2256.97 -1099.63,3276.62 -367.73,721.45 -319.64,1584.17 124.23,2261.1 444.96,675.83 1217.26,1063.08 2025.01,1011.96 808.03,-50.85 1526.18,-530.44 1882.64,-1257.39 520.82,-1023.77 937.75,-2097.29 1242.27,-3205.72l4841.56 2420.78c-174.52,1147.73 -546.93,2257.25 -1100.73,3276.9 -366.91,721.18 -319.64,1583.89 125.33,2260.82 443.86,676.93 1216.98,1063.08 2025.01,1012.23 807.75,-51.12 1526.18,-530.71 1882.37,-1257.66 521.09,-1023.5 936.92,-2097.29 1241.17,-3204.62l3137.28 1577.3c956.16,3984.61 1512.99,9039.99 591.45,11218.91 -29394.25,-982 -37390.41,-14440.02 -37458.84,-14579.63l0 -0.27zm0 0z"/>
   <path class="fil0" d="M145.11 56536.48l1593.51 -9566.58c3522.33,1229.63 7127.66,2208.88 10788.51,2929.23 3074.62,556.55 6091.52,1390.41 9016.08,2490.86 1881.54,939.95 4193.49,8866.57 5307.41,16001.92l-26836.61 0 0 -9008.11c-39.58,-951.49 4.95,-1903.81 131.1,-2847.33zm0 0z"/>
   <path class="fil0" d="M49597.91 68398.79l-18185.79 0c-741.51,-5132.61 -3019.65,-17629.24 -7852.69,-20058.81 -3243.92,-1289.27 -6611.52,-2245.43 -10048.92,-2855.85 -3737.25,-700.29 -7405.8,-1727.63 -10963.03,-3069.95l773.4 -3866.98c17706.2,6326.23 30552.42,9508.86 38652.74,9508.86 1978.84,48.1 3952.73,-220.7 5845.82,-795.38 1454.17,2273.46 11428.88,15872.75 42103.89,16583.48 79.98,20.06 160.78,35.73 242.68,47.27 144.29,0 766.52,0 1726.54,0 180.02,0 347.4,0 527.69,0 20.06,-3.85 40.4,-7.7 60.74,-13.74 6430.4,-56.62 24383.95,-374.33 31988.18,-2166.55 175.35,-52.77 343.82,-128.07 499.93,-225.09 598.87,1501.99 1003.44,3073.52 1206.54,4676.93 -250.38,1.92 -498.83,45.07 -734.92,128.07 -620.04,160.78 -9355.78,2107.74 -75842.79,2107.74l0 0zm0 0z"/>
   <path class="fil0" d="M126296.54 70697.26c-186.89,1149.65 -759.65,1642.71 -2573.86,2585.41 -6284.18,2860.79 -13130.41,4272.64 -20033.53,4131.1l-100028.85 -0.27c-1381.61,4.95 -2646.15,-776.97 -3260.41,-2014.29 -130.82,-275.39 -247.35,-557.65 -347.67,-845.4l-38.48 -104.16 0 -1543.49 49583.89 0c49378.86,0 71630.06,-1092.76 76698.91,-2208.88zm0 0z"/>
  </g>
 </g>
</svg>
