<?xml version="1.0" encoding="UTF-8"?>
<!DOCTYPE svg PUBLIC "-//W3C//DTD SVG 1.1//EN" "http://www.w3.org/Graphics/SVG/1.1/DTD/svg11.dtd">
<!-- Creator: CorelDRAW 2019 (64-Bit) -->
<svg xmlns="http://www.w3.org/2000/svg" xml:space="preserve" width="34.096mm" height="30.4168mm" version="1.1" style="shape-rendering:geometricPrecision; text-rendering:geometricPrecision; image-rendering:optimizeQuality; fill-rule:evenodd; clip-rule:evenodd"
viewBox="0 0 939.15 837.81"
 xmlns:xlink="http://www.w3.org/1999/xlink"
 xmlns:xodm="http://www.corel.com/coreldraw/odm/2003"
 enable-background="new 0 0 511.728 511.728">
 <defs>
  <style type="text/css">
   <![CDATA[
    .fil0 {fill:#FEFEFE}
   ]]>
  </style>
 </defs>
 <g id="Capa_x0020_1">
  <metadata id="CorelCorpID_0Corel-Layer"/>
  <g id="_2857693826128">
   <path class="fil0" d="M271.48 645.1c-41.03,-2.1 -40.26,-59.81 0,-61.81 114.03,0.4 414.8,0.1 532.46,0.19 32.18,0 59.71,-21.9 66.95,-53.25l66.81 -289.31c3.83,-16.57 -0.04,-33.71 -10.59,-47.04 -10.56,-13.33 -26.36,-21.07 -43.36,-21.07 -47.33,0 -449.11,-1.82 -654.91,-2.64l-32.62 -121.04c-7.83,-28.93 -34.23,-49.13 -64.19,-49.13l-104.5 0c-15.2,0 -27.53,12.33 -27.53,27.53 0,15.2 12.33,27.53 27.53,27.53l104.5 0c5.16,0 9.7,3.48 11.04,8.43l125.28 464.82c-22.03,0.8 -42.55,9.76 -58.11,25.55 -16.35,16.59 -25.13,38.55 -24.72,61.84 0.81,46.57 39.37,84.46 85.95,84.46l40.14 0c-5.97,12.52 -9.32,26.53 -9.32,41.3 0,53.13 43.23,96.35 96.36,96.35 53.13,0 96.35,-43.22 96.35,-96.35 0,-14.77 -3.35,-28.77 -9.32,-41.3l173.83 0c-5.96,12.52 -9.31,26.51 -9.31,41.28 0,53.13 43.23,96.36 96.36,96.36 53.13,0 96.36,-43.23 96.36,-96.36 0,-15.34 -3.62,-29.85 -10.03,-42.73 10.89,-3.67 18.75,-13.94 18.75,-26.07 0,-15.2 -12.33,-27.53 -27.53,-27.53l-552.64 0zm168.47 96.35c0,22.77 -18.52,41.3 -41.3,41.3 -22.77,0 -41.29,-18.53 -41.29,-41.3 0,-22.76 18.51,-41.28 41.26,-41.29l0.07 0c22.75,0.02 41.26,18.53 41.26,41.29l0 0zm306.61 41.28c-22.77,0 -41.29,-18.53 -41.29,-41.3 0,-22.55 18.16,-40.92 40.62,-41.28l1.34 0c22.47,0.36 40.63,18.73 40.63,41.28 -0,22.77 -18.53,41.3 -41.3,41.3l-0 0zm137.39 -554.67c0.16,0.21 0.14,0.3 0.1,0.46l-28.15 121.91 -95.33 0 16.23 -123 106.72 0.43c0.16,0 0.26,0 0.42,0.21l0 0zm-283.81 300.36l0 -122.93 97.64 0 -16.22 122.93 -81.42 0zm-136.51 0l-16.36 -122.93 97.81 0 0 122.93 -81.45 0zm-126.73 0l-0.09 0c-6.71,-0 -12.62,-4.53 -14.37,-10.98l-30.17 -111.96 99.46 0 16.36 122.93 -71.19 0zm103.05 -177.99l-16.56 -124.43 121.69 0.49 0 123.94 -105.13 0zm160.19 0l0 -123.72 121.17 0.49 -16.26 123.23 -104.9 0zm-232.32 -124.65l16.58 124.65 -106.97 0 -33.73 -125.15 124.12 0.5zm436.12 302.64l-66.85 0 16.22 -122.93 89.88 0 -25.94 112.35c-1.44,6.23 -6.91,10.59 -13.31,10.59l0 0z"/>
  </g>
 </g>
</svg>
